<svg width="1786" height="5824" viewBox="0 0 1786 5824" fill="none" xmlns="http://www.w3.org/2000/svg">
<path d="M1099.7 1.08417C1223.7 -0.635233 1472.76 22.5891 1320.75 201.042C1130.73 424.107 1803.93 598.505 1695.35 424.108C1586.77 249.711 761.557 448.442 1429.33 744.511C1963.55 981.366 913.57 1043.28 321.806 1044.64C114.694 1053.42 -203.184 1141.59 182.192 1423.92C663.912 1776.85 1535.49 1926.94 1482.41 2141.94C1429.33 2356.94 -475.69 3292.03 182.192 3292.03C1629.62 3292.03 310.863 3832.76 879.47 4016.22C1052.88 4072.17 1786.25 3977.45 1748.07 4332.48C1676.92 4993.97 -74.0156 4679.91 119.445 5042.92C361.271 5496.69 1748.07 5666.28 1785.08 5822.12" stroke="#EB9928" stroke-width="1.5" stroke-linecap="square"/>
</svg>
